<svg height="453pt" viewBox="-1 0 453 453.05822" width="453pt" xmlns="http://www.w3.org/2000/svg"><path d="m443.945312 333.703125c-40.886718-10.898437-176.605468-45.15625-235.78125-36.234375-27.925781 4.203125-52.949218 13.429688-72.53125 25.652344-25.8125 16.050781-42.222656 37.261718-43.5 58.976562-.1875 3.1875-.050781 6.386719.425782 9.582032 6.238281 41.472656 68.140625 66.515624 138.226562 55.949218 29.226563-4.398437 73.164063-24.355468 114.476563-46.140625l17.152343-9.21875c35.648438-19.507812 67.347657-38.933593 83.015626-48.757812 5.230468-3.277344 4.492187-8.222657-1.484376-9.808594zm0 0" fill="#d7e057"/><g fill="#3a312a"><path d="m451.855469 337.523438c-.480469-3.191407-3.082031-5.644532-7.136719-6.71875-40.488281-10.792969-177.253906-45.308594-237.003906-36.300782-27.496094 4.136719-52.96875 13.15625-73.664063 26.066406-27.25 16.941407-43.617187 39.300782-44.914062 61.347657-.199219 3.414062-.050781 6.84375.453125 10.207031 3.183594 21.148438 19.878906 38.839844 47.015625 49.824219 18.152343 7.34375 39.5625 11.109375 62.273437 11.109375 10.566406 0 21.421875-.816406 32.355469-2.464844 25.371094-3.816406 64.207031-19.445312 115.449219-46.460938l17.167968-9.234374c36.011719-19.707032 67.566407-39.0625 83.171876-48.847657 3.554687-2.222656 5.316406-5.335937 4.832031-8.527343zm-8.019531 3.445312c-15.546876 9.75-46.988282 29.035156-82.84375 48.65625l-17.132813 9.210938c-50.617187 26.691406-88.816406 42.109374-113.523437 45.824218-33.375 5.035156-65.863282 2.097656-91.484376-8.273437-25.085937-10.15625-40.476562-26.191407-43.332031-45.152344-.4375-2.949219-.570312-5.960937-.390625-8.964844 1.175782-20.074219 16.519532-40.707031 42.089844-56.605469 20.011719-12.488281 44.699219-21.210937 71.390625-25.226562 6.578125-.992188 14.117187-1.441406 22.394531-1.441406 65.476563 0 176.476563 28.089844 212.171875 37.605468 1.769531.46875 2.664063 1.269532 2.746094 1.816407s-.535156 1.578125-2.085937 2.550781zm0 0"/><path d="m451.113281 337.644531c-.25-1.636719-1.773437-2.757812-3.414062-2.519531-38.378907 5.78125-276.402344 41.640625-391.925781 59.058594l-.210938.039062c-1.550781.117188-2.777344 1.410156-2.777344 2.992188 0 1.65625 1.34375 3 3 3 .285156 0 .566406-.035156.871094-.09375 115.535156-17.421875 353.558594-53.28125 391.9375-59.0625 1.636719-.246094 2.761719-1.773438 2.519531-3.414063zm0 0"/><path d="m379.445312 370.699219-44.78125-18.121094c-1.53125-.621094-3.285156.121094-3.90625 1.65625-.621093 1.535156.121094 3.285156 1.65625 3.90625l44.78125 18.121094c.371094.148437.75.21875 1.125.21875 1.1875 0 2.308594-.707031 2.78125-1.875.625-1.535157-.117187-3.285157-1.65625-3.90625zm0 0"/><path d="m322 398.132812-78.585938-31.800781c-1.53125-.621093-3.285156.121094-3.90625 1.65625-.621093 1.535157.121094 3.285157 1.65625 3.90625l78.585938 31.800781c.367188.148438.75.21875 1.121094.21875 1.1875 0 2.3125-.707031 2.785156-1.875.621094-1.535156-.121094-3.285156-1.65625-3.90625zm0 0"/><path d="m253.882812 430.382812-118.167968-47.820312c-1.53125-.617188-3.28125.125-3.902344 1.65625-.621094 1.539062.117188 3.285156 1.652344 3.90625l118.167968 47.820312c.367188.148438.746094.21875 1.125.21875 1.183594 0 2.308594-.707031 2.78125-1.875.621094-1.535156-.121093-3.285156-1.65625-3.90625zm0 0"/><path d="m373.328125 323.027344c-1.050781-1.285156-2.933594-1.480469-4.222656-.429688l-37.449219 30.515625c-1.285156 1.046875-1.476562 2.933594-.429688 4.222657.59375.726562 1.457032 1.101562 2.328126 1.101562.664062 0 1.335937-.21875 1.894531-.671875l37.449219-30.515625c1.285156-1.046875 1.476562-2.9375.429687-4.222656zm0 0"/><path d="m310.347656 313.746094c-1.046875-1.285156-2.9375-1.476563-4.21875-.433594l-65.71875 53.550781c-1.289062 1.046875-1.480468 2.9375-.433594 4.222657.59375.726562 1.457032 1.105468 2.328126 1.105468.664062 0 1.339843-.222656 1.890624-.675781l65.722657-53.550781c1.28125-1.042969 1.476562-2.933594.429687-4.21875zm0 0"/><path d="m235.753906 303.007812c-1.050781-1.289062-2.9375-1.476562-4.222656-.429687l-98.824219 80.519531c-1.28125 1.046875-1.472656 2.9375-.429687 4.21875.59375.730469 1.460937 1.109375 2.328125 1.109375.667969 0 1.335937-.222656 1.894531-.675781l98.824219-80.523438c1.28125-1.046874 1.472656-2.9375.429687-4.21875zm0 0"/></g><path d="m119.382812 7.984375c-1.585937-5.972656-6.53125-6.710937-9.804687-1.480469-9.828125 15.671875-29.25 47.367188-48.757813 83.019532l-9.222656 17.148437c-7.117187 13.503906-14.03125 27.28125-20.28125 40.742187l-12.464844 28.808594c-6.644531 16.800782-11.484374 32.25-13.390624 44.925782-10.566407 70.085937 14.476562 131.988281 55.949218 138.230468 3.191406.476563 6.390625.609375 9.582032.421875 21.714843-1.273437 42.925781-17.683593 58.976562-43.5 12.21875-19.582031 21.449219-44.601562 25.648438-72.527343 8.921874-59.175782-25.335938-194.898438-36.234376-235.789063zm0 0" fill="#d7e057"/><path d="m122.28125 7.21875c-1.074219-4.054688-3.523438-6.65625-6.714844-7.140625-3.195312-.480469-6.304687 1.28125-8.53125 4.835937-9.789062 15.609376-29.152344 47.175782-48.859375 83.191407l-9.230469 17.167969c-7.609374 14.433593-14.457031 28.1875-20.347656 40.875-.699218 1.503906-.046875 3.289062 1.457032 3.984374 1.503906.703126 3.285156.046876 3.984374-1.457031 5.847657-12.597656 12.652344-26.257812 20.203126-40.582031l9.210937-17.128906c19.625-35.859375 38.914063-67.3125 48.667969-82.867188.972656-1.550781 2-2.167968 2.550781-2.085937.542969.085937 1.34375.976562 1.816406 2.75 10.714844 40.207031 45 175.949219 36.164063 234.5625-4.019532 26.691406-12.742188 51.375-25.234375 71.390625-15.894531 25.570312-36.527344 40.910156-56.605469 42.085937-2.996094.179688-6.011719.046875-8.957031-.390625-18.964844-2.855468-35-18.242187-45.15625-43.332031-10.367188-25.621094-13.304688-58.109375-8.273438-91.484375 1.75-11.621094 6.195313-26.511719 13.214844-44.265625.609375-1.542969-.144531-3.285156-1.6875-3.894531-1.539063-.605469-3.28125.144531-3.890625 1.683594-7.1875 18.179687-11.753906 33.515624-13.570312 45.582031-5.191407 34.421875-2.121094 68.027343 8.644531 94.628906 10.984375 27.132813 28.679687 43.832031 49.832031 47.015625 2.390625.355469 4.824219.535156 7.257812.535156.980469 0 1.960938-.03125 2.941407-.085937 22.046875-1.292969 44.40625-17.664063 61.34375-44.90625 12.917969-20.699219 21.933593-46.175781 26.070312-73.671875 9.011719-59.753906-25.507812-196.511719-36.300781-236.996094zm0 0" fill="#3a312a"/><path d="m115.453125.816406c-1.628906-.253906-3.167969.878906-3.417969 2.519532-5.820312 38.5-41.878906 277.761718-59.222656 392.953124l-.0625.421876c-.226562 1.640624.917969 3.15625 2.558594 3.382812.140625.019531.28125.027344.417968.027344 1.472657 0 2.757813-1.085938 2.964844-2.585938l.054688-.386718c17.339844-115.160157 53.402344-354.417969 59.21875-392.917969.253906-1.636719-.871094-3.167969-2.511719-3.414063zm0 0" fill="#3a312a"/><path d="m100.507812 117.269531-18.121093-44.785156c-.621094-1.535156-2.375-2.273437-3.90625-1.652344-1.535157.621094-2.277344 2.371094-1.65625 3.902344l18.121093 44.785156c.472657 1.167969 1.597657 1.875 2.785157 1.875.375 0 .753906-.074219 1.121093-.21875 1.535157-.625 2.277344-2.375 1.65625-3.90625zm0 0" fill="#3a312a"/><path d="m86.757812 208.519531-31.804687-78.582031c-.621094-1.539062-2.371094-2.273438-3.90625-1.65625-1.535156.621094-2.277344 2.371094-1.652344 3.90625l31.800781 78.582031c.472657 1.167969 1.59375 1.875 2.78125 1.875.375 0 .757813-.070312 1.125-.21875 1.535157-.621093 2.273438-2.371093 1.65625-3.90625zm0 0" fill="#3a312a"/><path d="m70.523438 316.214844-47.816407-118.164063c-.621093-1.539062-2.371093-2.273437-3.90625-1.65625-1.535156.621094-2.277343 2.371094-1.65625 3.90625l47.816407 118.164063c.472656 1.167968 1.597656 1.878906 2.785156 1.878906.375 0 .753906-.074219 1.121094-.222656 1.535156-.621094 2.277343-2.367188 1.65625-3.90625zm0 0" fill="#3a312a"/><path d="m130.0625 78.605469c-1.285156-1.046875-3.175781-.855469-4.222656.429687l-30.515625 37.449219c-1.046875 1.285156-.855469 3.175781.433593 4.222656.554688.453125 1.226563.671875 1.890626.671875.871093 0 1.734374-.375 2.328124-1.105468l30.515626-37.449219c1.042968-1.285157.851562-3.175781-.429688-4.21875zm0 0" fill="#3a312a"/><path d="m139.339844 141.585938c-1.28125-1.046876-3.171875-.855469-4.21875.433593l-53.550782 65.71875c-1.046874 1.285157-.855468 3.175781.433594 4.21875.554688.457031 1.226563.675781 1.890625.675781.871094 0 1.734375-.378906 2.328125-1.105468l53.550782-65.722656c1.046874-1.28125.851562-3.171876-.433594-4.21875zm0 0" fill="#3a312a"/><path d="m150.082031 216.183594c-1.285156-1.046875-3.175781-.855469-4.21875.429687l-80.523437 98.820313c-1.046875 1.285156-.851563 3.175781.429687 4.222656.558594.453125 1.230469.675781 1.894531.675781.871094 0 1.734376-.378906 2.328126-1.105469l80.523437-98.824218c1.042969-1.285156.851563-3.175782-.433594-4.21875zm0 0" fill="#3a312a"/><path d="m232.371094 22.40625c-1.949219 23.128906-26.050782 26.777344-26.050782 26.777344 20.695313.976562 25.851563 28.117187 25.851563 28.117187.441406-19.351562 26.640625-28.402343 26.640625-28.402343-19.625-1.171876-26.441406-26.492188-26.441406-26.492188zm0 0" fill="#d7e057"/><path d="m258.992188 45.902344c-17.210938-1.027344-23.664063-24.046875-23.726563-24.28125-.382813-1.40625-1.730469-2.335938-3.167969-2.203125-1.449218.132812-2.59375 1.285156-2.71875 2.734375-1.71875 20.429687-22.625 23.929687-23.507812 24.066406-1.523438.230469-2.625 1.578125-2.542969 3.121094.078125 1.539062 1.3125 2.769531 2.855469 2.84375 18.054687.847656 22.996094 25.433594 23.042968 25.683594.273438 1.421874 1.519532 2.433593 2.945313 2.433593.082031 0 .167969-.003906.25-.011719 1.527344-.125 2.714844-1.386718 2.75-2.917968.390625-17.019532 24.382813-25.554688 24.625-25.640625 1.351563-.46875 2.1875-1.828125 1.988281-3.246094-.195312-1.414063-1.363281-2.496094-2.792968-2.582031zm-27.128907 20.695312c-2.714843-6.261718-7.417969-13.816406-15.175781-17.753906 5.863281-2.808594 12.820312-7.824219 16.40625-16.546875 3.101562 6.144531 8.398438 13.761719 16.667969 17.449219-6.015625 3.277344-13.847657 8.808594-17.898438 16.851562zm0 0" fill="#3a312a"/><path d="m188.972656 56.367188c-1.378906 16.359374-18.425781 18.941406-18.425781 18.941406 14.636719.691406 18.285156 19.890625 18.285156 19.890625.3125-13.6875 18.84375-20.089844 18.84375-20.089844-13.882812-.832031-18.703125-18.742187-18.703125-18.742187zm0 0" fill="#d7e057"/><path d="m207.855469 72.113281c-11.53125-.691406-15.941407-16.371093-15.988281-16.53125-.378907-1.402343-1.699219-2.339843-3.164063-2.203125-1.449219.128906-2.597656 1.285156-2.71875 2.734375-1.15625 13.742188-15.292969 16.136719-15.882813 16.230469-1.527343.226562-2.625 1.578125-2.546874 3.121094.078124 1.539062 1.3125 2.765625 2.855468 2.839844 12.070313.570312 15.445313 17.289062 15.476563 17.453124.273437 1.425782 1.519531 2.441407 2.949219 2.441407.082031 0 .164062-.003907.25-.011719 1.527343-.125 2.714843-1.386719 2.75-2.921875.261718-11.417969 16.664062-17.265625 16.824218-17.320313 1.351563-.46875 2.1875-1.828124 1.992188-3.246093-.199219-1.417969-1.367188-2.5-2.796875-2.585938zm-19.167969 13.589844c-1.847656-3.773437-4.679688-7.894531-8.894531-10.5625 3.710937-2.082031 7.394531-5.257813 9.742187-9.832031 2.113282 3.75 5.308594 7.910156 9.882813 10.449218-3.703125 2.199219-7.980469 5.476563-10.730469 9.945313zm0 0" fill="#3a312a"/><path d="m188.972656 3.050781c-1.378906 16.359375-18.425781 18.945313-18.425781 18.945313 14.636719.6875 18.285156 19.886718 18.285156 19.886718.3125-13.691406 18.84375-20.089843 18.84375-20.089843-13.882812-.832031-18.703125-18.742188-18.703125-18.742188zm0 0" fill="#d7e057"/><path d="m207.855469 18.796875c-11.53125-.691406-15.941407-16.371094-15.988281-16.53125-.378907-1.402344-1.699219-2.3398438-3.164063-2.203125-1.449219.128906-2.597656 1.285156-2.71875 2.734375-1.15625 13.742187-15.292969 16.136719-15.882813 16.230469-1.527343.230468-2.625 1.578125-2.546874 3.117187.078124 1.542969 1.3125 2.769531 2.855468 2.84375 12.070313.566407 15.445313 17.289063 15.476563 17.453125.269531 1.421875 1.519531 2.4375 2.945312 2.4375.082031 0 .164063-.003906.25-.007812 1.527344-.125 2.714844-1.390625 2.75-2.921875.261719-11.417969 16.664063-17.269531 16.824219-17.324219 1.351562-.46875 2.1875-1.828125 1.992188-3.246094-.195313-1.414062-1.363282-2.496094-2.792969-2.582031zm-19.167969 13.589844c-1.847656-3.769531-4.679688-7.890625-8.894531-10.558594 3.710937-2.082031 7.394531-5.261719 9.742187-9.832031 2.113282 3.746094 5.308594 7.90625 9.882813 10.449218-3.703125 2.199219-7.980469 5.476563-10.730469 9.941407zm0 0" fill="#3a312a"/><path d="m369.0625 83.738281c-8.433594-8.433593-26.507812-4.03125-40.367188 9.828125-13.863281 13.863282-18.261718 31.9375-9.832031 40.367188 8.433594 8.433594 26.507813 4.03125 40.367188-9.828125 13.863281-13.859375 18.265625-31.933594 9.832031-40.367188zm0 0" fill="#f16c7a"/><path d="m371.183594 81.617188c-9.75-9.75-29.34375-5.433594-44.609375 9.828124-7.085938 7.085938-12.082031 15.480469-14.066407 23.628907-2.113281 8.679687-.609374 16.128906 4.238282 20.976562 3.414062 3.417969 8.121094 5.171875 13.644531 5.171875 2.3125 0 4.769531-.304687 7.335937-.929687 8.148438-1.984375 16.539063-6.980469 23.628907-14.070313 7.085937-7.085937 12.082031-15.476562 14.066406-23.628906 2.113281-8.679688.605469-16.128906-4.238281-20.976562zm-14.074219 40.367187c-12.453125 12.453125-29 16.953125-36.121094 9.828125-7.128906-7.125-2.628906-23.671875 9.828125-36.125 8.433594-8.433594 18.742188-13.21875 26.726563-13.21875 3.8125 0 7.09375 1.085938 9.398437 3.390625 7.125 7.125 2.625 23.667969-9.832031 36.125zm0 0" fill="#3a312a"/><path d="m356.273438 122.171875c-19.601563 0-35.496094 9.667969-35.496094 21.59375s15.894531 21.59375 35.496094 21.59375c19.601562 0 35.492187-9.667969 35.492187-21.59375.003906-11.925781-15.890625-21.59375-35.492187-21.59375zm0 0" fill="#f16c7a"/><path d="m356.273438 119.171875c-21.585938 0-38.492188 10.800781-38.492188 24.59375 0 13.789063 16.90625 24.59375 38.492188 24.59375 21.585937 0 38.496093-10.804687 38.496093-24.59375 0-13.792969-16.910156-24.59375-38.496093-24.59375zm0 43.1875c-17.613282 0-32.492188-8.515625-32.492188-18.59375s14.878906-18.59375 32.492188-18.59375c17.613281 0 32.496093 8.511719 32.496093 18.59375 0 10.078125-14.882812 18.59375-32.496093 18.59375zm0 0" fill="#3a312a"/><path d="m309.082031 61.082031c-11.925781 0-21.59375 15.886719-21.59375 35.492188s9.667969 35.492187 21.59375 35.492187 21.59375-15.886718 21.59375-35.492187-9.667969-35.492188-21.59375-35.492188zm0 0" fill="#f16c7a"/><path d="m309.082031 58.082031c-13.789062 0-24.589843 16.90625-24.589843 38.492188 0 21.585937 10.800781 38.492187 24.589843 38.492187 13.792969 0 24.59375-16.90625 24.59375-38.492187 0-21.585938-10.800781-38.492188-24.59375-38.492188zm0 70.984375c-10.078125 0-18.589843-14.878906-18.589843-32.496094 0-17.613281 8.511718-32.492187 18.589843-32.492187 10.082031 0 18.59375 14.878906 18.59375 32.492187 0 17.617188-8.511719 32.496094-18.59375 32.496094zm0 0" fill="#3a312a"/><path d="m320.488281 132.3125c-8.433593-8.433594-26.507812-4.03125-40.367187 9.828125-13.863282 13.863281-18.261719 31.9375-9.832032 40.371094 8.433594 8.429687 26.507813 4.03125 40.367188-9.832031 13.863281-13.863282 18.265625-31.933594 9.832031-40.367188zm0 0" fill="#f16c7a"/><path d="m322.609375 130.191406c-4.847656-4.847656-12.296875-6.355468-20.980469-4.242187-8.148437 1.988281-16.539062 6.984375-23.628906 14.070312-15.261719 15.261719-19.578125 34.859375-9.828125 44.609375 3.414063 3.417969 8.121094 5.171875 13.644531 5.171875 2.3125 0 4.769532-.304687 7.335938-.929687 8.148437-1.988282 16.542968-6.984375 23.628906-14.070313 7.085938-7.089843 12.082031-15.480469 14.066406-23.628906 2.113282-8.683594.609375-16.132813-4.238281-20.980469zm-14.074219 40.367188c-12.453125 12.453125-28.996094 16.957031-36.125 9.828125-7.125-7.125-2.625-23.667969 9.832032-36.125 6.320312-6.320313 13.707031-10.75 20.804687-12.480469 2.089844-.507812 4.066406-.761719 5.894531-.761719 3.917969 0 7.167969 1.15625 9.421875 3.414063 7.128907 7.125 2.628907 23.667968-9.828125 36.125zm0 0" fill="#3a312a"/><path d="m343.195312 192.335938c0-11.925782-15.890624-21.59375-35.496093-21.59375-19.601563 0-35.492188 9.667968-35.492188 21.59375 0 11.925781 15.890625 21.59375 35.492188 21.59375 19.605469 0 35.496093-9.667969 35.496093-21.59375zm0 0" fill="#f16c7a"/><path d="m307.699219 167.746094c-21.585938 0-38.496094 10.800781-38.496094 24.589844 0 13.789062 16.910156 24.59375 38.496094 24.59375 21.585937 0 38.492187-10.800782 38.492187-24.59375.003906-13.789063-16.90625-24.589844-38.492187-24.589844zm0 43.183594c-17.613281 0-32.492188-8.511719-32.492188-18.59375 0-10.078126 14.878907-18.589844 32.492188-18.589844 17.617187 0 32.496093 8.511718 32.496093 18.589844 0 10.082031-14.878906 18.59375-32.496093 18.59375zm0 0" fill="#3a312a"/><path d="m260.511719 109.652344c-8.925781 0-16.582031 8.902344-19.875 21.59375l-.140625 27.195312c3.203125 13.011719 10.949218 22.199219 20.011718 22.199219 11.925782 0 21.59375-15.886719 21.59375-35.492187 0-19.605469-9.667968-35.496094-21.589843-35.496094zm0 0" fill="#f16c7a"/><path d="m260.511719 106.652344c-10.082031 0-19.019531 9.359375-22.777344 23.839844-.414063 1.605468.546875 3.242187 2.152344 3.65625 1.609375.417968 3.242187-.542969 3.65625-2.148438 3-11.570312 9.820312-19.347656 16.96875-19.347656 10.078125 0 18.589843 14.882812 18.589843 32.496094 0 17.613281-8.511718 32.492187-18.589843 32.492187-7.296875 0-14.167969-8.003906-17.101563-19.917969-.394531-1.609375-2.023437-2.59375-3.628906-2.195312-1.609375.398437-2.59375 2.023437-2.195312 3.632812 3.660156 14.871094 12.660156 24.480469 22.925781 24.480469 13.789062 0 24.589843-16.90625 24.589843-38.492187 0-21.585938-10.800781-38.496094-24.589843-38.496094zm0 0" fill="#3a312a"/><path d="m271.914062 180.886719c-8.429687-8.433594-26.503906-4.03125-40.367187 9.828125-13.859375 13.863281-18.261719 31.933594-9.828125 40.367187 8.433594 8.433594 26.507812 4.03125 40.367188-9.828125 13.859374-13.863281 18.261718-31.9375 9.828124-40.367187zm0 0" fill="#f16c7a"/><path d="m274.035156 178.765625c-4.847656-4.847656-12.296875-6.355469-20.976562-4.242187-8.152344 1.984374-16.546875 6.980468-23.632813 14.070312-7.089843 7.085938-12.085937 15.476562-14.070312 23.628906-2.113281 8.679688-.605469 16.128906 4.242187 20.976563 3.414063 3.417969 8.121094 5.171875 13.644532 5.171875 2.3125 0 4.769531-.308594 7.332031-.929688 8.152343-1.988281 16.542969-6.984375 23.628906-14.070312 7.089844-7.085938 12.085937-15.480469 14.070313-23.632813 2.113281-8.675781.609374-16.125-4.238282-20.972656zm-1.589844 19.554687c-1.730468 7.101563-6.164062 14.488282-12.484374 20.808594-6.316407 6.320313-13.707032 10.753906-20.804688 12.484375-6.566406 1.59375-12.007812.65625-15.316406-2.652343-7.128906-7.125-2.628906-23.671876 9.828125-36.125 8.433593-8.4375 18.742187-13.21875 26.730469-13.21875 3.808593 0 7.09375 1.085937 9.394531 3.390624 3.308593 3.308594 4.25 8.75 2.652343 15.3125zm0 0" fill="#3a312a"/><path d="m259.125 219.316406c-19.601562 0-35.492188 9.667969-35.492188 21.597656 0 11.925782 15.890626 21.59375 35.492188 21.59375 19.605469 0 35.496094-9.667968 35.496094-21.59375 0-11.929687-15.890625-21.597656-35.496094-21.597656zm0 0" fill="#f16c7a"/><path d="m259.125 216.316406c-21.585938 0-38.492188 10.800782-38.492188 24.59375 0 13.789063 16.90625 24.59375 38.492188 24.59375s38.496094-10.804687 38.496094-24.59375c0-13.789062-16.910156-24.59375-38.496094-24.59375zm0 43.1875c-17.613281 0-32.492188-8.515625-32.492188-18.589844 0-10.082031 14.878907-18.597656 32.492188-18.597656 17.617188 0 32.496094 8.515625 32.496094 18.597656 0 10.074219-14.882813 18.589844-32.496094 18.589844zm0 0" fill="#3a312a"/><path d="m211.9375 158.226562c-11.925781 0-21.59375 15.890626-21.59375 35.496094 0 19.601563 9.667969 35.492188 21.59375 35.492188s21.59375-15.890625 21.59375-35.492188c-.003906-19.605468-9.667969-35.496094-21.59375-35.496094zm0 0" fill="#f16c7a"/><path d="m229.769531 167.0625c-4.644531-7.632812-10.976562-11.835938-17.832031-11.835938-13.789062 0-24.59375 16.90625-24.59375 38.492188s10.804688 38.496094 24.59375 38.496094c13.792969 0 24.59375-16.910156 24.59375-38.496094-.003906-10.019531-2.402344-19.488281-6.761719-26.65625zm-17.832031 59.152344c-10.082031 0-18.59375-14.878906-18.59375-32.496094 0-17.613281 8.511719-32.492188 18.59375-32.492188 4.679688 0 9.191406 3.179688 12.703125 8.953126 3.796875 6.242187 5.886719 14.601562 5.886719 23.539062 0 17.617188-8.511719 32.496094-18.589844 32.496094zm0 0" fill="#3a312a"/><path d="m223.339844 229.460938c-8.429688-8.433594-26.503906-4.03125-40.363282 9.828124-13.863281 13.863282-18.265624 31.933594-9.832031 40.367188 8.433594 8.433594 26.507813 4.03125 40.367188-9.828125 13.859375-13.863281 18.261719-31.9375 9.828125-40.367187zm0 0" fill="#f16c7a"/><path d="m225.460938 227.339844c-4.847657-4.851563-12.300782-6.355469-20.976563-4.242188-8.152344 1.988282-16.542969 6.984375-23.632813 14.070313-7.085937 7.085937-12.082031 15.480469-14.070312 23.628906-2.113281 8.683594-.605469 16.132813 4.242188 20.980469 3.414062 3.414062 8.121093 5.171875 13.644531 5.171875 2.3125 0 4.769531-.308594 7.335937-.933594 8.148438-1.984375 16.539063-6.980469 23.628906-14.066406 7.085938-7.085938 12.082032-15.480469 14.066407-23.632813 2.117187-8.679687.609375-16.128906-4.238281-20.976562zm-14.070313 40.363281c-12.457031 12.457031-29 16.957031-36.125 9.832031-3.308594-3.3125-4.25-8.75-2.652344-15.316406 1.730469-7.097656 6.164063-14.488281 12.484375-20.808594 6.320313-6.320312 13.710938-10.75 20.808594-12.480468 2.085938-.507813 4.0625-.761719 5.890625-.761719 3.917969 0 7.164063 1.15625 9.421875 3.414062 7.125 7.125 2.625 23.667969-9.828125 36.121094zm0 0" fill="#3a312a"/><path d="m246.046875 289.484375c0-11.925781-15.890625-21.59375-35.496094-21.59375-19.601562 0-35.492187 9.667969-35.492187 21.59375s15.890625 21.59375 35.492187 21.59375c19.605469 0 35.496094-9.667969 35.496094-21.59375zm0 0" fill="#f16c7a"/><path d="m210.550781 264.890625c-21.585937 0-38.492187 10.804687-38.492187 24.59375 0 13.792969 16.90625 24.59375 38.492187 24.59375 21.585938 0 38.496094-10.800781 38.496094-24.59375 0-13.789063-16.910156-24.59375-38.496094-24.59375zm0 43.1875c-17.613281 0-32.492187-8.515625-32.492187-18.59375s14.878906-18.59375 32.492187-18.59375c17.617188 0 32.496094 8.515625 32.496094 18.59375s-14.878906 18.59375-32.496094 18.59375zm0 0" fill="#3a312a"/><path d="m163.363281 206.800781c-11.925781 0-21.59375 15.890625-21.59375 35.492188 0 19.601562 9.667969 35.496093 21.59375 35.496093s21.59375-15.894531 21.59375-35.496093c0-19.601563-9.667969-35.492188-21.59375-35.492188zm0 0" fill="#f16c7a"/><path d="m163.363281 203.800781c-13.789062 0-24.59375 16.90625-24.59375 38.492188 0 21.585937 10.800781 38.496093 24.59375 38.496093 13.789063 0 24.589844-16.910156 24.589844-38.496093.003906-21.585938-10.800781-38.492188-24.589844-38.492188zm0 70.988281c-10.082031 0-18.59375-14.878906-18.59375-32.496093 0-17.613281 8.511719-32.492188 18.59375-32.492188 10.078125 0 18.589844 14.878907 18.589844 32.492188.003906 17.617187-8.511719 32.496093-18.589844 32.496093zm0 0" fill="#3a312a"/><path d="m174.761719 278.03125c-8.433594-8.433594-26.503907-4.03125-40.367188 9.828125-13.859375 13.863281-18.261719 31.933594-9.828125 40.367187 8.433594 8.433594 26.507813 4.03125 40.367188-9.828124 13.863281-13.859376 18.261718-31.933594 9.828125-40.367188zm0 0" fill="#f16c7a"/><path d="m176.886719 275.914062c-4.84375-4.851562-12.292969-6.355468-20.976563-4.242187-8.152344 1.984375-16.542968 6.980469-23.628906 14.066406-15.261719 15.265625-19.582031 34.859375-9.832031 44.609375 3.417969 3.417969 8.125 5.171875 13.644531 5.171875 2.316406 0 4.769531-.308593 7.335938-.929687 8.152343-1.984375 16.542968-6.980469 23.628906-14.070313 7.089844-7.085937 12.085937-15.476562 14.066406-23.628906 2.117188-8.679687.613281-16.128906-4.238281-20.976563zm-1.589844 19.554688c-1.726563 7.097656-6.160156 14.488281-12.480469 20.808594-12.457031 12.453125-28.996094 16.957031-36.125 9.828125-7.125-7.125-2.625-23.667969 9.828125-36.125 8.433594-8.433594 18.742188-13.214844 26.730469-13.214844 3.8125 0 7.09375 1.089844 9.398438 3.386719 3.304687 3.3125 4.25 8.75 2.648437 15.316406zm0 0" fill="#3a312a"/><path d="m197.472656 338.058594c0-11.925782-15.890625-21.59375-35.492187-21.59375-19.605469 0-35.496094 9.667968-35.496094 21.59375 0 11.925781 15.890625 21.59375 35.496094 21.59375 19.601562 0 35.492187-9.667969 35.492187-21.59375zm0 0" fill="#f16c7a"/><path d="m161.980469 313.464844c-21.585938 0-38.492188 10.800781-38.492188 24.59375 0 13.789062 16.90625 24.589844 38.492188 24.589844 21.585937 0 38.496093-10.800782 38.496093-24.589844-.003906-13.789063-16.910156-24.59375-38.496093-24.59375zm0 43.183594c-17.613281 0-32.492188-8.511719-32.492188-18.589844 0-10.082032 14.878907-18.59375 32.492188-18.59375s32.496093 8.511718 32.496093 18.59375c-.003906 10.078125-14.882812 18.589844-32.496093 18.589844zm0 0" fill="#3a312a"/><path d="m136.382812 290.867188c0-19.601563-9.667968-35.492188-21.59375-35.492188-11.925781 0-21.59375 15.890625-21.59375 35.492188 0 19.605468 9.667969 35.496093 21.59375 35.496093 11.925782 0 21.59375-15.890625 21.59375-35.496093zm0 0" fill="#f16c7a"/><path d="m114.789062 252.375c-13.789062 0-24.59375 16.90625-24.59375 38.492188 0 21.585937 10.800782 38.496093 24.59375 38.496093 13.792969 0 24.59375-16.910156 24.59375-38.496093 0-21.585938-10.800781-38.492188-24.59375-38.492188zm0 70.988281c-10.082031 0-18.59375-14.882812-18.59375-32.496093 0-17.613282 8.511719-32.492188 18.59375-32.492188 10.078126 0 18.59375 14.878906 18.59375 32.492188 0 17.613281-8.515624 32.496093-18.59375 32.496093zm0 0" fill="#3a312a"/><path d="m126.714844 326.132812c-1.171875-1.171874-3.066406-1.171874-4.238282 0l-120.050781 120.050782c-1.171875 1.167968-1.171875 3.070312 0 4.242187.585938.585938 1.351563.875 2.117188.875.769531 0 1.539062-.289062 2.121093-.875l120.050782-120.050781c1.171875-1.171875 1.171875-3.074219 0-4.242188zm0 0" fill="#3a312a"/><path d="m366.941406 85.859375c-2.300781-2.300781-5.582031-3.382813-9.402344-3.382813-2.117187 0-4.398437.339844-6.757812 1 6.539062 8.800782 3.960938 23.523438-6.039062 36.601563.179687.039063.339843.058594.519531.101563 3.480469-.660157 7.179687-1 11.019531-1 1.121094 0 2.238281.039062 3.339844.097656 10.519531-12.058594 13.941406-26.800782 7.320312-33.417969zm0 0" fill="#ce4e61"/><path d="m311.339844 173.859375c7.941406 4.480469 12.859375 11.039063 12.859375 18.480469 0 7.417968-4.917969 14-12.820313 18.457031 15.960938-1.078125 28.820313-9.097656 28.820313-18.457031 0-9.382813-12.878907-17.402344-28.859375-18.480469zm0 0" fill="#ce4e61"/><path d="m262.78125 222.4375c7.917969 4.480469 12.839844 11.039062 12.839844 18.480469 0 7.421875-4.902344 13.980469-12.820313 18.460937 15.960938-1.082031 28.820313-9.082031 28.820313-18.460937 0-9.378907-12.878906-17.398438-28.839844-18.480469zm0 0" fill="#ce4e61"/><path d="m214.199219 271.019531c7.921875 4.480469 12.839843 11.019531 12.839843 18.457031 0 7.441407-4.898437 14-12.796874 18.460938 15.9375-1.078125 28.796874-9.097656 28.796874-18.460938 0-9.378906-12.878906-17.378906-28.839843-18.457031zm0 0" fill="#ce4e61"/><path d="m165.621094 319.578125c7.941406 4.480469 12.863281 11.039063 12.863281 18.480469 0 7.417968-4.921875 14-12.820313 18.460937 15.957032-1.082031 28.820313-9.101562 28.820313-18.460937-.003906-9.378906-12.882813-17.398438-28.863281-18.480469zm0 0" fill="#ce4e61"/><path d="m356.265625 125.164062c-2.160156 0-4.300781.117188-6.359375.398438 14.597656 1.78125 25.957031 9.398438 25.957031 18.199219 0 8.820312-11.378906 16.441406-26 18.21875 2.082031.242187 4.222657.382812 6.402344.382812 17.617187 0 32.5-8.519531 32.5-18.601562 0-10.078125-14.882813-18.597657-32.5-18.597657zm0 0" fill="#ce4e61"/></svg>