<svg height="451pt" viewBox="-1 0 451 451.7" width="451pt" xmlns="http://www.w3.org/2000/svg"><path d="m95.402344 53.378906c-1.945313 23.125-26.046875 26.777344-26.046875 26.777344 20.691406.976562 25.847656 28.121094 25.847656 28.121094.441406-19.355469 26.644531-28.40625 26.644531-28.40625-19.628906-1.175782-26.445312-26.492188-26.445312-26.492188zm0 0" fill="#d7e057"/><path d="m122.027344 76.875c-17.210938-1.027344-23.664063-24.046875-23.726563-24.28125-.382812-1.402344-1.722656-2.324219-3.167969-2.203125-1.449218.132813-2.59375 1.285156-2.71875 2.734375-1.71875 20.429688-22.625 23.925781-23.507812 24.0625-1.523438.234375-2.625 1.582031-2.542969 3.121094.078125 1.542968 1.3125 2.769531 2.855469 2.84375 18.054688.851562 22.996094 25.4375 23.042969 25.683594.273437 1.425781 1.519531 2.4375 2.945312 2.4375.082031 0 .167969-.003907.25-.011719 1.527344-.128907 2.714844-1.386719 2.75-2.917969.390625-17.019531 24.386719-25.554688 24.628907-25.640625 1.347656-.46875 2.183593-1.828125 1.984374-3.242187-.199218-1.417969-1.367187-2.5-2.792968-2.585938zm-27.132813 20.691406c-2.714843-6.261718-7.417969-13.8125-15.171875-17.753906 5.863282-2.808594 12.816406-7.828125 16.402344-16.542969 3.101562 6.140625 8.398438 13.757813 16.667969 17.445313-6.015625 3.277344-13.84375 8.808594-17.898438 16.851562zm0 0" fill="#3a312a"/><path d="m52.007812 87.339844c-1.378906 16.355468-18.425781 18.941406-18.425781 18.941406 14.636719.6875 18.285157 19.886719 18.285157 19.886719.3125-13.6875 18.84375-20.089844 18.84375-20.089844-13.882813-.832031-18.703126-18.738281-18.703126-18.738281zm0 0" fill="#d7e057"/><path d="m70.886719 103.082031c-11.53125-.691406-15.941407-16.371093-15.984375-16.53125-.378906-1.402343-1.710938-2.328125-3.164063-2.203125-1.453125.128906-2.597656 1.285156-2.71875 2.738282-1.160156 13.738281-15.296875 16.128906-15.886719 16.222656-1.523437.234375-2.625 1.582031-2.542968 3.125.078125 1.539062 1.3125 2.769531 2.851562 2.839844 12.070313.570312 15.449219 17.289062 15.480469 17.453124.269531 1.425782 1.515625 2.441407 2.945313 2.441407.082031 0 .164062-.003907.246093-.011719 1.53125-.125 2.714844-1.382812 2.753907-2.921875.257812-11.417969 16.664062-17.265625 16.824218-17.324219 1.351563-.464844 2.1875-1.824218 1.992188-3.242187-.195313-1.417969-1.367188-2.503907-2.796875-2.585938zm-19.167969 13.589844c-1.847656-3.773437-4.679688-7.894531-8.894531-10.558594 3.710937-2.082031 7.394531-5.257812 9.742187-9.832031 2.117188 3.746094 5.308594 7.90625 9.882813 10.445312-3.699219 2.203126-7.976563 5.480469-10.730469 9.945313zm0 0" fill="#3a312a"/><path d="m52.007812 34.023438c-1.378906 16.355468-18.425781 18.941406-18.425781 18.941406 14.636719.6875 18.285157 19.886718 18.285157 19.886718.3125-13.6875 18.84375-20.089843 18.84375-20.089843-13.882813-.828125-18.703126-18.738281-18.703126-18.738281zm0 0" fill="#d7e057"/><path d="m70.886719 49.769531c-11.53125-.691406-15.941407-16.375-15.984375-16.53125-.378906-1.402343-1.714844-2.316406-3.164063-2.203125-1.453125.128906-2.597656 1.285156-2.71875 2.734375-1.160156 13.742188-15.296875 16.132813-15.886719 16.226563-1.523437.230468-2.625 1.582031-2.542968 3.121094.078125 1.542968 1.3125 2.769531 2.855468 2.84375 12.070313.566406 15.445313 17.289062 15.476563 17.453124.269531 1.425782 1.519531 2.441407 2.945313 2.441407.082031 0 .164062-.003907.25-.011719 1.527343-.125 2.714843-1.386719 2.75-2.921875.261718-11.417969 16.664062-17.269531 16.824218-17.324219 1.355469-.46875 2.1875-1.824218 1.992188-3.242187-.195313-1.417969-1.367188-2.503907-2.796875-2.585938zm-19.167969 13.589844c-1.847656-3.773437-4.679688-7.894531-8.894531-10.5625 3.710937-2.082031 7.394531-5.257813 9.742187-9.832031 2.117188 3.75 5.308594 7.910156 9.882813 10.449218-3.699219 2.199219-7.976563 5.476563-10.730469 9.945313zm0 0" fill="#3a312a"/><path d="m155.789062 143.820312c-41.160156 0-78.484374 16.34375-105.910156 42.859376l-18.8125 21.984374c-17.441406 24.789063-27.714844 54.984376-27.714844 87.597657 0 84.191406 68.25 152.441406 152.4375 152.441406 84.191407 0 152.441407-68.25 152.441407-152.441406 0-84.191407-68.25-152.441407-152.441407-152.441407zm0 0" fill="#fce8cb"/><path d="m155.789062 140.820312c-40.492187 0-78.84375 15.519532-107.996093 43.703126-1.191407 1.148437-1.226563 3.046874-.074219 4.242187 1.15625 1.1875 3.054688 1.222656 4.242188.070313 28.027343-27.09375 64.902343-42.015626 103.828124-42.015626 82.402344 0 149.441407 67.039063 149.441407 149.441407 0 82.398437-67.039063 149.441406-149.441407 149.441406-82.402343 0-149.4375-67.042969-149.4375-149.441406 0-30.914063 9.394532-60.609375 27.167969-85.871094.953125-1.355469.628907-3.226563-.726562-4.179687-1.355469-.953126-3.226563-.628907-4.179688.726562-18.488281 26.277344-28.261719 57.164062-28.261719 89.324219 0 85.707031 69.726563 155.4375 155.4375 155.4375 85.710938 0 155.441407-69.730469 155.441407-155.4375 0-85.710938-69.734375-155.441407-155.441407-155.441407zm0 0" fill="#3a312a"/><path d="m159.390625 204.066406c-.945313-13.320312-12.511719-23.347656-25.828125-22.402344-13.320312.945313-23.347656 12.511719-22.402344 25.828126.945313 13.320312 12.511719 23.351562 25.828125 22.402343 13.320313-.945312 23.347657-12.511719 22.402344-25.828125zm0 0" fill="#87796f"/><path d="m135.273438 178.605469c-14.984376 0-27.175782 12.191406-27.175782 27.175781s12.191406 27.171875 27.175782 27.171875c14.984374 0 27.171874-12.1875 27.171874-27.171875s-12.1875-27.175781-27.171874-27.175781zm0 48.347656c-11.675782 0-21.175782-9.496094-21.175782-21.171875s9.5-21.175781 21.175782-21.175781c11.675781 0 21.171874 9.5 21.171874 21.175781s-9.496093 21.171875-21.171874 21.171875zm0 0" fill="#3a312a"/><path d="m179.664062 300.410156c-2.140624-13.179687-14.558593-22.128906-27.738281-19.988281-13.179687 2.136719-22.128906 14.554687-19.992187 27.734375 2.140625 13.179688 14.558594 22.132812 27.738281 19.992188 13.179687-2.136719 22.128906-14.558594 19.992187-27.738282zm0 0" fill="#87796f"/><path d="m155.789062 277.109375c-14.984374 0-27.175781 12.191406-27.175781 27.175781s12.191407 27.175782 27.175781 27.175782c14.984376 0 27.175782-12.191407 27.175782-27.175782s-12.191406-27.175781-27.175782-27.175781zm0 48.351563c-11.675781 0-21.175781-9.5-21.175781-21.175782 0-11.675781 9.5-21.175781 21.175781-21.175781 11.675782 0 21.175782 9.5 21.175782 21.175781 0 11.675782-9.5 21.175782-21.175782 21.175782zm0 0" fill="#3a312a"/><path d="m96.65625 350.65625c-13.351562 0-24.175781 10.824219-24.175781 24.175781 0 13.351563 10.824219 24.175781 24.175781 24.175781s24.175781-10.824218 24.175781-24.175781c0-13.351562-10.824219-24.175781-24.175781-24.175781zm0 0" fill="#87796f"/><path d="m96.65625 347.65625c-14.984375 0-27.175781 12.191406-27.175781 27.175781s12.191406 27.175781 27.175781 27.175781 27.175781-12.191406 27.175781-27.175781-12.191406-27.175781-27.175781-27.175781zm0 48.351562c-11.675781 0-21.175781-9.5-21.175781-21.175781s9.5-21.175781 21.175781-21.175781 21.175781 9.5 21.175781 21.175781-9.496093 21.175781-21.175781 21.175781zm0 0" fill="#3a312a"/><path d="m86.539062 268.320312c-2.140624-13.179687-14.558593-22.128906-27.738281-19.988281-13.179687 2.136719-22.128906 14.554688-19.992187 27.734375 2.140625 13.179688 14.558594 22.132813 27.738281 19.992188s22.128906-14.558594 19.992187-27.738282zm0 0" fill="#87796f"/><path d="m62.667969 245.015625c-14.984375 0-27.175781 12.191406-27.175781 27.175781s12.191406 27.175782 27.175781 27.175782 27.175781-12.191407 27.175781-27.175782-12.191406-27.175781-27.175781-27.175781zm0 48.351563c-11.675781 0-21.175781-9.5-21.175781-21.175782 0-11.675781 9.5-21.175781 21.175781-21.175781s21.175781 9.5 21.175781 21.175781c0 11.675782-9.496094 21.175782-21.175781 21.175782zm0 0" fill="#3a312a"/><path d="m227.996094 350.65625c-13.351563 0-24.175782 10.824219-24.175782 24.175781 0 13.351563 10.824219 24.175781 24.175782 24.175781 13.355468 0 24.179687-10.824218 24.179687-24.175781 0-13.351562-10.824219-24.175781-24.179687-24.175781zm0 0" fill="#87796f"/><path d="m227.996094 347.65625c-14.980469 0-27.175782 12.191406-27.175782 27.175781s12.195313 27.175781 27.175782 27.175781c14.984375 0 27.179687-12.191406 27.179687-27.175781s-12.195312-27.175781-27.179687-27.175781zm0 48.351562c-11.675782 0-21.175782-9.5-21.175782-21.175781s9.5-21.175781 21.175782-21.175781c11.679687 0 21.179687 9.5 21.179687 21.175781s-9.5 21.175781-21.179687 21.175781zm0 0" fill="#3a312a"/><path d="m439.230469 183.84375c-29.164063 0-50.757813-23.835938-52.019531-52.023438-.402344-8.996093 2.003906-17.558593 6.347656-25.050781-20.539063-1.394531-35.503906-18.648437-36.414063-38.949219-.328125-7.316406 1.816407-14.253906 5.601563-20.203124-3.097656.835937-6.296875 1.285156-9.515625 1.285156-21.910157 0-38.136719-17.90625-39.085938-39.082032-.085937-1.949218.003907-3.871093.25-5.757812-5.835937-.679688-11.761719-1.066406-17.78125-1.066406-33.605469 0-64.652343 10.898437-89.847656 29.316406l-21.671875 19.242188c-25.371094 27.226562-40.921875 63.730468-40.921875 103.882812 0 84.191406 68.25 152.441406 152.441406 152.441406 74.675781 0 136.769531-53.714844 149.855469-124.601562-2.390625.363281-4.808594.566406-7.238281.566406zm0 0" fill="#fce8cb"/><path d="m448.625 181.1875c-.675781-.699219-1.644531-1.027344-2.609375-.878906-2.300781.351562-4.582031.535156-6.785156.535156-26.257813 0-47.789063-21.59375-49.023438-49.15625-.359375-7.984375 1.699219-16.082031 5.945313-23.414062.523437-.898438.539062-2 .054687-2.914063-.488281-.914063-1.414062-1.515625-2.445312-1.582031-18.300781-1.246094-32.753907-16.757813-33.621094-36.089844-.285156-6.351562 1.492187-12.734375 5.136719-18.457031.664062-1.042969.617187-2.390625-.113282-3.386719-.730468-1-2.003906-1.445312-3.199218-1.121094-2.910156.785156-5.847656 1.179688-8.738282 1.179688-19.324218 0-35.175781-15.90625-36.085937-36.214844-.078125-1.726562 0-3.488281.230469-5.230469.101562-.796875-.117188-1.601562-.609375-2.234375-.492188-.632812-1.222657-1.042968-2.019531-1.136718-6.191407-.71875-12.292969-1.085938-18.128907-1.085938-33.183593 0-64.867187 10.339844-91.621093 29.894531-1.335938.976563-1.625 2.855469-.648438 4.191407.976562 1.339843 2.851562 1.628906 4.191406.652343 25.71875-18.800781 56.175782-28.738281 88.078125-28.738281 4.695313 0 9.574219.246094 14.535157.734375-.046876 1.078125-.046876 2.15625 0 3.222656 1.054687 23.523438 19.539062 41.949219 42.078124 41.949219 1.316407 0 2.640626-.070312 3.96875-.207031-2.25 5.207031-3.296874 10.730469-3.046874 16.257812.929687 20.796875 15.550781 37.789063 34.742187 41.253907-3.414063 7.25-5.023437 15.03125-4.679687 22.746093 1.378906 30.777344 25.546874 54.886719 55.015624 54.886719 1.152344 0 2.324219-.042969 3.5-.128906-14.609374 68.710937-75.417968 118.164062-146.117187 118.164062-82.402344 0-149.4375-67.039062-149.4375-149.441406 0-37.910156 14.246094-74.078125 40.113281-101.835938 1.128906-1.210937 1.066406-3.113281-.148437-4.242187-1.214844-1.128906-3.109375-1.0625-4.242188.152344-26.902343 28.871093-41.722656 66.492187-41.722656 105.925781 0 85.707031 69.730469 155.441406 155.441406 155.441406 74.949219 0 139.210938-53.4375 152.808594-127.058594.175781-.953124-.121094-1.9375-.796875-2.632812zm0 0" fill="#3a312a"/><path d="m299.964844 61.078125c-2.140625-13.179687-14.558594-22.128906-27.738282-19.992187-13.179687 2.140624-22.128906 14.558593-19.992187 27.738281 2.140625 13.179687 14.558594 22.128906 27.738281 19.992187 13.179688-2.140625 22.128906-14.558594 19.992188-27.738281zm0 0" fill="#87796f"/><path d="m276.09375 37.78125c-14.984375 0-27.175781 12.191406-27.175781 27.175781s12.191406 27.175781 27.175781 27.175781 27.175781-12.191406 27.175781-27.175781-12.191406-27.175781-27.175781-27.175781zm0 48.351562c-11.675781 0-21.175781-9.5-21.175781-21.175781s9.5-21.175781 21.175781-21.175781 21.175781 9.5 21.175781 21.175781-9.496093 21.175781-21.175781 21.175781zm0 0" fill="#3a312a"/><path d="m305.875 141.121094c-12.335938-5.109375-26.480469.75-31.589844 13.085937-5.109375 12.335938.75 26.476563 13.085938 31.585938 12.335937 5.113281 26.476562-.746094 31.585937-13.082031 5.113281-12.335938-.746093-26.480469-13.082031-31.589844zm0 0" fill="#87796f"/><path d="m296.613281 136.285156c-14.984375 0-27.175781 12.191406-27.175781 27.175782 0 14.984374 12.191406 27.175781 27.175781 27.175781s27.175781-12.191407 27.175781-27.175781c0-14.984376-12.191406-27.175782-27.175781-27.175782zm0 48.351563c-11.675781 0-21.175781-9.5-21.175781-21.175781 0-11.675782 9.5-21.175782 21.175781-21.175782s21.175781 9.5 21.175781 21.175782c0 11.675781-9.5 21.175781-21.175781 21.175781zm0 0" fill="#3a312a"/><path d="m261.601562 232.296875c-.945312-13.320313-12.511718-23.351563-25.828124-22.402344-13.320313.945313-23.347657 12.511719-22.402344 25.828125.945312 13.320313 12.511718 23.347656 25.828125 22.402344 13.320312-.945312 23.351562-12.511719 22.402343-25.828125zm0 0" fill="#87796f"/><path d="m237.480469 206.832031c-14.984375 0-27.175781 12.191407-27.175781 27.175781 0 14.984376 12.191406 27.175782 27.175781 27.175782s27.175781-12.191406 27.175781-27.175782c0-14.984374-12.191406-27.175781-27.175781-27.175781zm0 48.351563c-11.675781 0-21.175781-9.5-21.175781-21.175782 0-11.675781 9.5-21.175781 21.175781-21.175781s21.175781 9.5 21.175781 21.175781c0 11.675782-9.5 21.175782-21.175781 21.175782zm0 0" fill="#3a312a"/><path d="m212.75 109.03125c-12.335938-5.109375-26.476562.746094-31.585938 13.082031-5.109374 12.335938.746094 26.480469 13.082032 31.589844 12.335937 5.109375 26.480468-.75 31.589844-13.085937 5.109374-12.335938-.75-26.476563-13.085938-31.585938zm0 0" fill="#87796f"/><path d="m203.492188 104.195312c-14.984376 0-27.175782 12.191407-27.175782 27.175782s12.191406 27.171875 27.175782 27.171875c14.984374 0 27.175781-12.1875 27.175781-27.171875s-12.191407-27.175782-27.175781-27.175782zm0 48.347657c-11.675782 0-21.175782-9.496094-21.175782-21.171875 0-11.675782 9.5-21.175782 21.175782-21.175782 11.675781 0 21.175781 9.5 21.175781 21.175782 0 11.675781-9.5 21.171875-21.175781 21.171875zm0 0" fill="#3a312a"/><path d="m371.179688 209.953125c-13.289063-1.316406-25.125 8.390625-26.441407 21.675781-1.3125 13.285156 8.390625 25.125 21.679688 26.4375 13.285156 1.316406 25.121093-8.386718 26.4375-21.675781 1.316406-13.285156-8.390625-25.121094-21.675781-26.4375zm0 0" fill="#87796f"/><path d="m368.820312 206.832031c-14.980468 0-27.175781 12.191407-27.175781 27.175781 0 14.984376 12.195313 27.175782 27.175781 27.175782 14.984376 0 27.175782-12.191406 27.175782-27.175782 0-14.984374-12.191406-27.175781-27.175782-27.175781zm0 48.351563c-11.675781 0-21.175781-9.5-21.175781-21.175782 0-11.675781 9.5-21.175781 21.175781-21.175781 11.675782 0 21.175782 9.5 21.175782 21.175781 0 11.675782-9.5 21.175782-21.175782 21.175782zm0 0" fill="#3a312a"/><g fill="#ccae8b"><path d="m296.609375 310.882812c-7.679687 0-15.21875-.5625-22.597656-1.640624-2.660157 20.878906-9.640625 40.417968-20.023438 57.703124.78125 2.5 1.183594 5.136719 1.183594 7.875 0 15-12.183594 27.183594-27.183594 27.183594-.976562 0-1.957031-.058594-2.917969-.160156-26.398437 23.539062-61.21875 37.859375-99.28125 37.859375-4.820312 0-9.578124-.222656-14.277343-.699219 14 4.359375 28.859375 6.699219 44.277343 6.699219 77.539063 0 141.460938-59.382813 148.742188-135.042969-2.640625.140625-5.261719.222656-7.921875.222656zm0 0"/><path d="m439.230469 186.839844c-29.480469 0-53.640625-24.101563-55.019531-54.878906-.339844-7.722657 1.257812-15.5 4.679687-22.761719-19.199219-3.460938-33.800781-20.4375-34.742187-41.238281-.238282-5.539063.800781-11.0625 3.042968-16.261719-1.320312.140625-2.640625.199219-3.960937.199219-22.539063 0-41.019531-18.417969-42.082031-41.9375-.039063-1.082032-.039063-2.160157 0-3.222657-5-.5-9.777344-.738281-14.539063-.738281-5.21875 0-10.378906.261719-15.460937.800781-.039063 1.039063-.039063 2.097657 0 3.160157 1.0625 23.519531 19.542968 41.9375 42.082031 41.9375 1.320312 0 2.640625-.058594 3.960937-.199219-2.242187 5.199219-3.28125 10.722656-3.042968 16.261719.941406 20.800781 15.542968 37.777343 34.742187 41.238281-3.421875 7.261719-5.019531 15.039062-4.679687 22.761719 1.378906 30.777343 25.539062 54.878906 55.019531 54.878906 1.160156 0 2.320312-.039063 3.5-.121094-3.359375 15.78125-9.160157 30.5625-16.960938 43.941406.160157 1.101563.21875 2.203125.21875 3.339844 0 13.738281-10.238281 25.121094-23.476562 26.921875-23.921875 23.976563-55.820313 39.699219-90.941407 43.199219 4.941407.5 9.960938.761718 15.039063.761718 70.699219 0 131.5-49.460937 146.121094-118.160156-1.179688.078125-2.339844.117188-3.5.117188zm0 0"/></g></svg>