<svg height="455pt" viewBox="0 -2 455.25284 455" width="455pt" xmlns="http://www.w3.org/2000/svg"><path d="m67.230469 153.328125c-1.945313 23.125-26.046875 26.777344-26.046875 26.777344 20.695312.972656 25.851562 28.117187 25.851562 28.117187.441406-19.355468 26.640625-28.402344 26.640625-28.402344-19.628906-1.175781-26.445312-26.492187-26.445312-26.492187zm0 0" fill="#d7e057"/><path d="m93.855469 176.824219c-17.210938-1.027344-23.664063-24.046875-23.726563-24.28125-.382812-1.40625-1.695312-2.320313-3.167968-2.203125-1.449219.128906-2.597657 1.28125-2.71875 2.734375-1.71875 20.429687-22.625 23.925781-23.507813 24.0625-1.527344.230469-2.625 1.582031-2.546875 3.125.082031 1.539062 1.316406 2.765625 2.855469 2.839843 18.058593.851563 23 25.4375 23.046875 25.683594.273437 1.421875 1.519531 2.433594 2.945312 2.433594.082032 0 .167969 0 .25-.007812 1.53125-.128907 2.714844-1.386719 2.75-2.917969.386719-17.015625 24.382813-25.554688 24.625-25.636719 1.355469-.472656 2.1875-1.828125 1.988282-3.246094-.199219-1.417968-1.363282-2.5-2.792969-2.585937zm-27.132813 20.691406c-2.710937-6.257813-7.417968-13.816406-15.175781-17.75 5.863281-2.8125 12.820313-7.828125 16.40625-16.546875 3.101563 6.140625 8.398437 13.757812 16.667969 17.445312-6.015625 3.277344-13.84375 8.808594-17.898438 16.851563zm0 0" fill="#3a312a"/><path d="m23.835938 187.285156c-1.378907 16.359375-18.425782 18.941406-18.425782 18.941406 14.636719.691407 18.285156 19.890626 18.285156 19.890626.3125-13.6875 18.84375-20.089844 18.84375-20.089844-13.882812-.832032-18.703124-18.742188-18.703124-18.742188zm0 0" fill="#d7e057"/><path d="m42.71875 203.03125c-11.535156-.691406-15.945312-16.371094-15.988281-16.527344-.378907-1.40625-1.726563-2.328125-3.164063-2.207031-1.449218.132813-2.597656 1.285156-2.71875 2.738281-1.160156 13.742188-15.292968 16.132813-15.886718 16.226563-1.523438.230469-2.625 1.578125-2.542969 3.121093.078125 1.539063 1.3125 2.769532 2.855469 2.839844 12.070312.570313 15.445312 17.289063 15.476562 17.453125.273438 1.425781 1.519531 2.441407 2.945312 2.441407.082032 0 .167969-.003907.25-.011719 1.53125-.125 2.714844-1.386719 2.753907-2.921875.257812-11.417969 16.660156-17.265625 16.824219-17.324219 1.351562-.46875 2.183593-1.824219 1.992187-3.242187-.199219-1.417969-1.371094-2.5-2.796875-2.585938zm-19.171875 13.589844c-1.847656-3.773438-4.679687-7.894532-8.894531-10.5625 3.710937-2.082032 7.394531-5.257813 9.742187-9.832032 2.117188 3.746094 5.308594 7.910157 9.882813 10.449219-3.699219 2.199219-7.976563 5.480469-10.730469 9.945313zm0 0" fill="#3a312a"/><path d="m23.835938 133.972656c-1.378907 16.359375-18.425782 18.941406-18.425782 18.941406 14.636719.6875 18.285156 19.886719 18.285156 19.886719.3125-13.6875 18.84375-20.089843 18.84375-20.089843-13.882812-.832032-18.703124-18.738282-18.703124-18.738282zm0 0" fill="#d7e057"/><path d="m42.71875 149.714844c-11.535156-.6875-15.945312-16.371094-15.988281-16.527344-.378907-1.40625-1.726563-2.324219-3.164063-2.203125-1.449218.128906-2.597656 1.28125-2.71875 2.734375-1.160156 13.742188-15.292968 16.132812-15.886718 16.226562-1.523438.230469-2.625 1.582032-2.542969 3.125.078125 1.539063 1.3125 2.765626 2.855469 2.839844 12.070312.566406 15.445312 17.289063 15.476562 17.453125.273438 1.425781 1.519531 2.4375 2.945312 2.4375.082032 0 .167969 0 .25-.007812 1.53125-.125 2.714844-1.386719 2.753907-2.921875.257812-11.417969 16.660156-17.269532 16.824219-17.324219 1.351562-.46875 2.183593-1.828125 1.992187-3.246094-.199219-1.417969-1.371094-2.5-2.796875-2.585937zm-19.171875 13.589844c-1.847656-3.769532-4.679687-7.890626-8.894531-10.558594 3.710937-2.082032 7.394531-5.257813 9.742187-9.832032 2.117188 3.746094 5.308594 7.910157 9.882813 10.445313-3.699219 2.203125-7.976563 5.480469-10.730469 9.945313zm0 0" fill="#3a312a"/><path d="m247.527344 3.664062c-49.824219-6.925781-99.128906 51.546876-110.117188 130.605469-10.992187 79.058594 20.492188 148.761719 70.316406 155.6875 49.828126 6.929688 99.128907-51.546875 110.121094-130.605469 10.988282-79.054687-20.492187-148.761718-70.320312-155.6875zm0 0" fill="#87796f"/><path d="m247.941406.703125c-51.425781-7.132813-102.300781 52.59375-113.503906 133.160156-11.203125 80.566407 21.492188 151.925781 72.871094 159.070313 2.800781.390625 5.59375.582031 8.382812.582031 48.425782 0 94.53125-57.558594 105.121094-133.738281 11.203125-80.570313-21.488281-151.929688-72.871094-159.074219zm66.929688 158.246094c-10.175782 73.1875-53.644532 128.574219-99.074219 128.574219-2.546875 0-5.105469-.175782-7.660156-.53125-48.105469-6.6875-78.5-75.007813-67.757813-152.300782 10.75-77.289062 58.605469-134.738281 106.738282-128.039062 48.105468 6.683594 78.5 75.007812 67.753906 152.296875zm0 0" fill="#3a312a"/><path d="m248.894531 2.097656c-.773437-1.464844-2.59375-2.0273435-4.050781-1.25-22.023438 11.625-38.082031 33.300782-44.0625 59.453125-6.203125 27.105469-.730469 55.726563 14.628906 76.570313.589844.800781 1.496094 1.222656 2.417969 1.222656.621094 0 1.242187-.191406 1.777344-.585938 1.335937-.984374 1.621093-2.859374.632812-4.195312-14.335937-19.457031-19.425781-46.25-13.613281-71.671875 5.59375-24.453125 20.542969-44.675781 41.015625-55.488281 1.464844-.777344 2.027344-2.589844 1.253906-4.054688zm0 0" fill="#3a312a"/><path d="m241.40625 160.410156c-.933594-1.371094-2.796875-1.71875-4.167969-.789062-1.367187.933594-1.71875 2.804687-.785156 4.171875 12.320313 18.035156 16.363281 40.605469 11.390625 63.546875-5.367188 24.757812-20.9375 47.027344-41.648438 59.578125-1.417968.859375-1.871093 2.703125-1.011718 4.121093.5625.929688 1.550781 1.445313 2.566406 1.445313.53125 0 1.066406-.140625 1.550781-.433594 22.097657-13.386719 38.699219-37.101562 44.40625-63.441406 5.328125-24.566406.960938-48.785156-12.300781-68.199219zm0 0" fill="#3a312a"/><path d="m255.941406 261.730469c-27.15625-42.34375-103.636718-41.746094-170.824218 1.339843-67.191407 43.082032-99.644532 112.339844-72.492188 154.683594 27.15625 42.347656 103.636719 41.75 170.824219-1.335937 67.191406-43.085938 99.644531-112.339844 72.492187-154.6875zm0 0" fill="#87796f"/><path d="m258.46875 260.09375c-13.707031-21.378906-39.5625-33.003906-72.949219-32.746094-32.824219.257813-69.054687 12.039063-102.019531 33.183594-32.964844 21.140625-58.792969 49.152344-72.714844 78.875-14.144531 30.183594-14.382812 58.582031-.671875 79.957031 13.953125 21.757813 40.429688 32.625 71.960938 32.625 31.761719 0 68.644531-11.027343 103.003906-33.0625 32.964844-21.140625 58.792969-49.152343 72.714844-78.875 14.148437-30.183593 14.386719-58.582031.675781-79.957031zm-6.105469 77.410156c-13.453125 28.710938-38.5 55.835938-70.523437 76.371094-65.691406 42.125-140.460938 43.128906-166.679688 2.25-12.554687-19.582031-12.183594-45.925781 1.054688-74.175781 13.453125-28.707031 38.5-55.832031 70.523437-76.367188 32.027344-20.539062 67.125-31.984375 98.828125-32.234375.351563-.003906.703125-.003906 1.050782-.003906 30.6875 0 54.382812 10.625 66.796874 29.988281 12.5625 19.582031 12.1875 45.921875-1.050781 74.171875zm0 0" fill="#3a312a"/><path d="m256.144531 257.757812c-15.988281-5.046874-32.605469-6.355468-48.046875-3.792968-27.191406 4.519531-50.621094 20.980468-64.28125 45.164062-7.042968 12.46875-9.886718 26.105469-12.640625 39.292969-2.78125 13.324219-5.40625 25.910156-11.992187 37.570313-.816406 1.441406-.304688 3.269531 1.136718 4.085937.464844.261719.972657.386719 1.472657.386719 1.042969 0 2.0625-.546875 2.613281-1.523438 7.042969-12.472656 9.890625-26.109375 12.640625-39.296875 2.78125-13.324219 5.40625-25.910156 11.992187-37.5625 12.765626-22.601562 34.648438-37.980469 60.039063-42.203125 14.519531-2.410156 30.167969-1.167968 45.261719 3.59375 1.578125.503906 3.265625-.375 3.765625-1.957031.496093-1.574219-.382813-3.257813-1.960938-3.757813zm0 0" fill="#3a312a"/><path d="m102.054688 401.589844c-1.03125-1.296875-2.914063-1.511719-4.214844-.484375-22.441406 17.808593-53.816406 22.847656-83.933594 13.484375-1.582031-.496094-3.265625.390625-3.757812 1.972656-.492188 1.582031.394531 3.265625 1.976562 3.753906 10.558594 3.285156 21.273438 4.894532 31.757812 4.894532 21.289063 0 41.609376-6.644532 57.6875-19.40625 1.296876-1.027344 1.515626-2.917969.484376-4.214844zm0 0" fill="#3a312a"/><path d="m370.128906 263.035156c-67.191406-43.085937-143.671875-43.683594-170.824218-1.339844-27.15625 42.347657 5.300781 111.601563 72.488281 154.6875 67.191406 43.085938 143.671875 43.683594 170.824219 1.335938 27.15625-42.34375-5.300782-111.601562-72.488282-154.683594zm0 0" fill="#87796f"/><path d="m444.46875 339.40625c-13.925781-29.722656-39.753906-57.734375-72.714844-78.875-68.46875-43.910156-146.960937-44.105469-174.96875-.4375-13.710937 21.375-13.472656 49.773438.671875 79.957031 13.925781 29.722657 39.753907 57.734375 72.71875 78.875 34.359375 22.035157 71.238281 33.0625 103 33.0625 31.53125 0 58.015625-10.871093 71.964844-32.625 13.710937-21.375 13.472656-49.773437-.671875-79.957031zm-4.378906 76.71875c-26.214844 40.882812-100.988282 39.875-166.679688-2.25-32.023437-20.539062-57.066406-47.660156-70.523437-76.371094-13.234375-28.25-13.609375-54.589844-1.050781-74.171875 12.855468-20.042969 37.367187-30.015625 66.769531-30.015625 30.570312 0 66.425781 10.792969 99.910156 32.265625 32.023437 20.535157 57.070313 47.660157 70.523437 76.367188 13.234376 28.25 13.609376 54.59375 1.050782 74.175781zm0 0" fill="#3a312a"/><path d="m320.390625 320.472656c-5.613281-23.238281-21.238281-42.882812-43.996094-55.320312-24.324219-13.292969-52.523437-15.976563-77.367187-7.371094-1.566406.542969-2.394532 2.253906-1.851563 3.820312.542969 1.566407 2.246094 2.390626 3.816407 1.851563 22.902343-7.9375 50.019531-5.335937 72.523437 6.960937 21.257813 11.617188 35.832031 29.894532 41.042969 51.464844.332031 1.375 1.558594 2.296875 2.914062 2.296875.230469 0 .46875-.027343.707032-.082031 1.609374-.390625 2.597656-2.007812 2.210937-3.621094zm0 0" fill="#3a312a"/><path d="m445.089844 416.515625c-.519532-1.574219-2.210938-2.425781-3.789063-1.914063-24.109375 7.9375-50.835937 5.230469-73.324219-7.429687-20.871093-11.746094-35.734374-31-40.78125-52.820313-.375-1.613281-1.980468-2.625-3.597656-2.246093-1.617187.371093-2.625 1.984375-2.246094 3.597656 5.421876 23.457031 21.34375 44.125 43.679688 56.695313 14.90625 8.390624 31.566406 12.675781 48.222656 12.675781 10.105469 0 20.210938-1.578125 29.921875-4.777344 1.574219-.511719 2.429688-2.207031 1.914063-3.78125zm0 0" fill="#3a312a"/><g fill="#6b5b51"><path d="m212.484375 236.238281c-14.078125 5.117188-25.578125 13.617188-33.179687 25.476563-.679688 1.0625-1.320313 2.121094-1.917969 3.222656 7.097656-4.101562 14.660156-7.179688 22.519531-9.222656 5.460938-7.058594 12.378906-12.777344 20.441406-17.179688-2.542968-.878906-5.160156-1.636718-7.863281-2.296875zm0 0"/><path d="m197.464844 340.054688c-13.417969-28.597657-14.296875-55.578126-2.699219-76.519532-5.941406 2.082032-11.660156 4.820313-17.058594 8.222656-1.621093 1.019532-3.199219 2.078126-4.722656 3.21875-10.9375 32.941407 6.0625 76.5 42.5 112.5 2.800781-2.679687 5.5-5.421874 8.101563-8.21875-10.878907-12.402343-19.761719-25.621093-26.121094-39.203124zm0 0"/><path d="m212.484375 236.238281c-14.078125 5.117188-25.578125 13.617188-33.179687 25.476563-.679688 1.0625-1.320313 2.121094-1.917969 3.222656 7.097656-4.101562 14.660156-7.179688 22.519531-9.222656 5.460938-7.058594 12.378906-12.777344 20.441406-17.179688-2.542968-.878906-5.160156-1.636718-7.863281-2.296875zm0 0"/><path d="m197.464844 340.054688c-13.417969-28.597657-14.296875-55.578126-2.699219-76.519532-5.941406 2.082032-11.660156 4.820313-17.058594 8.222656-1.621093 1.019532-3.199219 2.078126-4.722656 3.21875-10.9375 32.941407 6.0625 76.5 42.5 112.5 2.800781-2.679687 5.5-5.421874 8.101563-8.21875-10.878907-12.402343-19.761719-25.621093-26.121094-39.203124zm0 0"/><path d="m247.125 6.65625c-.078125-.019531-.140625-.019531-.199219-.019531-1.941406 1.238281-3.800781 2.519531-5.621093 3.839843 39.882812 16.640626 63.519531 78.921876 53.863281 148.480469-3.582031 25.597657-11.203125 49-21.601563 68.621094 6.101563.199219 12.378906.796875 18.757813 1.796875 10.863281-19.976562 18.882812-44.039062 22.542969-70.417969 10.757812-77.300781-19.640626-145.621093-67.742188-152.300781zm0 0"/><path d="m439.046875 341.957031c-13.460937-28.71875-38.5-55.839843-70.539063-76.378906-33.480468-21.460937-69.339843-32.261719-99.902343-32.261719-.980469 0-1.9375.019532-2.898438.039063-.660156 0-1.339843.019531-2 .0625-.800781.019531-1.601562.058593-2.402343.117187-.796876.042969-1.597657.101563-2.378907.160156 28.21875 2.0625 60 12.722657 89.878907 31.882813 32.019531 20.539063 57.0625 47.660156 70.519531 76.378906 12.921875 27.578125 13.5625 53.339844 1.882812 72.757813l-2.160156 4.339844c7.121094-.597657 14.339844-2.019532 21.558594-4.238282l.300781-.101562c11.679688-19.417969 11.058594-45.179688-1.859375-72.757813zm0 0"/><path d="m412.867188 425.398438c-11.921876 11.957031-29.261719 18.738281-49.519532 20.359374 30.359375 2.21875 56.597656-5.519531 71.976563-23.300781-7.558594 1.800781-15.078125 2.78125-22.457031 2.941407zm0 0"/></g></svg>